<?xml version="1.0" encoding="UTF-8" standalone="no"?>
<svg
   xmlns:dc="http://purl.org/dc/elements/1.1/"
   xmlns:cc="http://creativecommons.org/ns#"
   xmlns:rdf="http://www.w3.org/1999/02/22-rdf-syntax-ns#"
   xmlns:svg="http://www.w3.org/2000/svg"
   xmlns="http://www.w3.org/2000/svg"
   xmlns:sodipodi="http://sodipodi.sourceforge.net/DTD/sodipodi-0.dtd"
   xmlns:inkscape="http://www.inkscape.org/namespaces/inkscape"
   version="1.1"
   id="레이어_1"
   x="0px"
   y="0px"
   viewBox="0 0 104.06 89"
   style="enable-background:new 0 0 104.06 89;"
   xml:space="preserve"
   sodipodi:docname="uniQon-White Vector.svg"
   inkscape:version="1.0.1 (3bc2e813f5, 2020-09-07)"><metadata
   id="metadata223"><rdf:RDF><cc:Work
       rdf:about=""><dc:format>image/svg+xml</dc:format><dc:type
         rdf:resource="http://purl.org/dc/dcmitype/StillImage" /><dc:title></dc:title></cc:Work></rdf:RDF></metadata><defs
   id="defs221" /><sodipodi:namedview
   pagecolor="#ffffff"
   bordercolor="#666666"
   borderopacity="1"
   objecttolerance="10"
   gridtolerance="10"
   guidetolerance="10"
   inkscape:pageopacity="0"
   inkscape:pageshadow="2"
   inkscape:window-width="1920"
   inkscape:window-height="1057"
   id="namedview219"
   showgrid="false"
   inkscape:zoom="7.0710678"
   inkscape:cx="28.475622"
   inkscape:cy="54.946768"
   inkscape:window-x="-8"
   inkscape:window-y="-8"
   inkscape:window-maximized="1"
   inkscape:current-layer="레이어_1"
   inkscape:document-rotation="0" />
<path
   d="M 86.910597,14.954505 C 82.949982,8.6790705 77.771744,3.6346376 71.870962,-0.08512985 75.456926,2.9789952 78.654855,6.6318604 81.304186,10.819943 c 7.359253,11.641 9.098712,25.222165 5.954303,37.59909 -5.927543,-21.395354 -26.27922,-22.331985 -26.27922,-22.331985 6.489523,2.622569 17.862912,10.20929 22.519312,32.367329 -0.548599,1.070437 -1.13734,2.127493 -1.766221,3.157788 L 81.116859,58.494519 C 75.095653,29.258216 56.001738,27.023679 56.001738,27.023679 64.51171,20.253167 59.199668,12.492501 59.199668,12.492501 48.026986,13.348851 48.883334,23.665183 48.883334,23.665183 L 48.76291,23.798989 18.790684,9.0671038 40.172656,28.120877 c 0,0 -7.733904,5.164857 -9.459984,10.316334 -1.72608,5.164856 -1.72608,11.172682 -5.164857,13.755111 -2.181016,1.632417 -5.378944,3.947235 -7.452916,5.432467 -1.217622,0.883109 -1.645795,2.502145 -0.990154,3.866952 1.859884,3.880333 6.195153,10.744508 12.604393,7.720524 8.737439,-4.121181 4.442312,-7.559959 9.593788,-9.272658 4.027518,-1.338046 11.186064,-1.632415 13.741731,-9.459984 L 53.43269,49.061294 C 58.477124,64.970659 50.930545,79.27437 47.89318,84.21176 36.412747,85.977979 24.637944,83.529356 14.843448,77.360965 30.485203,90.741424 53.606637,93.029482 71.911103,81.455385 94.417035,67.231957 101.13402,37.460437 86.910597,14.954505 Z"
   id="path216"
   style="fill:#000000;stroke-width:1.33804" />
</svg>
