<svg id="Layer_1" data-name="Layer 1" style="background-color:black;fill:white" xmlns="http://www.w3.org/2000/svg" viewBox="0 0 297.65 300"><path d="M1.65,203.37c1.4-16.71.94-33.13,4.48-48.63,6.27-27.51,16.47-53.86,34.82-76,6.87-8.27,12.7-16.52,15.71-27.11C64,25.89,82.41,10.76,107,2.34c3.8-1.3,8-1.7,12-2.15,11.7-1.29,17.2,4,17.84,17.15a142,142,0,0,1,0,15.44c-.35,5.65,2.52,6.83,7.55,8.28,24.85,7.15,45.11-7.21,66.83-13.88C236,19.55,260.32,10.26,284.75,1.4c6.36-2.31,10.78-.27,13.57,5s-.51,11.68-7,14.19c-10.92,4.2-22.06,7.83-33.1,11.74C242.06,38,225.92,43.66,209.9,49.62c-1.74.65-4,3.34-3.84,4.77.28,2,2.27,4.34,4.16,5.58,15.53,10.18,33.54,17.8,46.38,30.63,31.69,31.66,18.46,74.9-16.2,91-16.77,7.8-33,5.46-48.62-4.49-4.23-2.69-10-3.29-15.16-4-2.07-.31-6.23,1.29-6.36,2.39-.31,2.65.35,6.34,2.12,8.14,7.67,7.8,15.29,15.86,24,22.39,25.64,19.19,43.19,44,53.75,74,3.2,9.09,1.38,16.31-4.29,18.95a9.6,9.6,0,0,1-13.24-6.38C224.56,259,203,236,176.39,215.78c-15.82-12-30.14-26.55-34.84-47.41-2.18-9.68,1.85-16.08,11.56-16.62a245,245,0,0,1,32.4.13c4.47.35,9,3.22,13,5.78,12.59,8.12,25.35,9.85,39,2.75,12.18-6.35,16.44-17.5,16.79-29.89a32.18,32.18,0,0,0-11.05-25.29c-17.22-15.38-37-26-59-33-18.06-5.8-36.12-10.73-55.15-11.79-8.82-.49-13.76-6.39-13.85-15.31,0-4.37,0-8.75,0-13.12-.1-7.41-3.07-9.31-10.33-6.49C88.38,31.91,77.5,44.25,74.18,61.09c-2.3,11.68-8.24,19.44-15.76,27.73-15.19,16.74-23.56,37.28-29.68,58.87-6.52,23-6.5,46.49-6,70,.47,22,5,43.38,11.18,64.43,1.69,5.75,2.12,11.17-2.94,15.49s-12,2.78-13.94-4.05C12.68,278.48,8.61,263.21,6,247.75,3.49,233,3,217.84,1.65,203.37Z" transform="translate(-1.65 0)"/><path d="M128.94,96.88c.16-3.87,4.28-6.71,9.58-7.74,3.89-.76,10.25,5.93,10.13,9.89-.16,5.34-6.13,11.44-11.1,10.88C131.42,109.2,128.89,105.17,128.94,96.88Z" transform="translate(-1.65 0)"/></svg>